<?xml version="1.0" encoding="UTF-8" standalone="no"?>
<!-- Created with Inkscape (http://www.inkscape.org/) -->

<svg
   xmlns:dc="http://purl.org/dc/elements/1.1/"
   xmlns:cc="http://creativecommons.org/ns#"
   xmlns:rdf="http://www.w3.org/1999/02/22-rdf-syntax-ns#"
   xmlns:svg="http://www.w3.org/2000/svg"
   xmlns="http://www.w3.org/2000/svg"
   xmlns:sodipodi="http://sodipodi.sourceforge.net/DTD/sodipodi-0.dtd"
   xmlns:inkscape="http://www.inkscape.org/namespaces/inkscape"
   id="svg3039"
   version="1.1"
   inkscape:version="0.48.5 r10040"
   width="275"
   height="275"
   sodipodi:docname="hq.svg">
  <metadata
     id="metadata3045">
    <rdf:RDF>
      <cc:Work
         rdf:about="">
        <dc:format>image/svg+xml</dc:format>
        <dc:type
           rdf:resource="http://purl.org/dc/dcmitype/StillImage" />
        <dc:title />
      </cc:Work>
    </rdf:RDF>
  </metadata>
  <defs
     id="defs3043" />
  <sodipodi:namedview
     pagecolor="#ffffff"
     bordercolor="#666666"
     borderopacity="1"
     objecttolerance="10"
     gridtolerance="10"
     guidetolerance="10"
     inkscape:pageopacity="0"
     inkscape:pageshadow="2"
     inkscape:window-width="1564"
     inkscape:window-height="1005"
     id="namedview3041"
     showgrid="false"
     fit-margin-top="0"
     fit-margin-left="0"
     fit-margin-right="0"
     fit-margin-bottom="0"
     inkscape:zoom="0.81875"
     inkscape:cx="108.35024"
     inkscape:cy="-59.386231"
     inkscape:window-x="325"
     inkscape:window-y="157"
     inkscape:window-maximized="0"
     inkscape:current-layer="svg3039"
     showguides="true"
     inkscape:guide-bbox="true" />
  <path
     sodipodi:type="arc"
     style="fill:#000000"
     id="path4222"
     sodipodi:cx="-147.17557"
     sodipodi:cy="144.36641"
     sodipodi:rx="142.29007"
     sodipodi:ry="125.80153"
     d="m -4.885498,144.36641 a 142.29007,125.80153 0 1 1 -284.580142,0 142.29007,125.80153 0 1 1 284.580142,0 z"
     transform="matrix(0.96633588,0,0,1.0929915,279.72103,-20.291256)" />
  <path
     style="fill:#ffffff"
     d="m 86.186079,258.87029 c -0.97622,-0.56859 -1.2429,-1.6869 -1.2429,-5.21207 0,-5.75517 1.79409,-16.05629 3.45588,-19.84261 2.70805,-6.17016 3.00069,-7.4512 2.79386,-12.23 -0.20929,-4.83567 -0.2441,-4.91488 -2.10578,-4.79147 -1.04113,0.069 -4.13093,1.10771 -6.8662,2.30823 -6.89677,3.02701 -13.83176,3.09682 -19.38622,0.19514 -5.02164,-2.62334 -6.78509,-5.34487 -7.35715,-11.35428 -0.97506,-10.24287 -1.47995,-11.59324 -6.31805,-16.89809 -4.89802,-5.37054 -6.39999,-7.84882 -7.09818,-11.71213 -0.75827,-4.19575 0.20978,-6.67941 4.87712,-12.51287 6.42679,-8.03248 8.45591,-15.03011 6.7661,-23.33346 -0.47378,-2.32803 -2.87286,-8.70723 -5.33129,-14.17598 -8.75196,-19.46861 -10.8602,-30.193215 -8.9613,-45.586245 1.16297,-9.42734 2.98597,-14.54836 8.4086,-23.62077 10.8913,-18.22185 25.11172,-31.46388 43.15954,-40.19003 C 106.53878,12.391005 119.00413,9.6374051 137.5,9.6374051 c 18.49587,0 30.96122,2.7535999 46.51989,10.2762499 18.04782,8.72615 32.26825,21.96818 43.15955,40.19003 5.42263,9.07241 7.24563,14.19343 8.40859,23.62077 1.8989,15.39303 -0.20933,26.117635 -8.96129,45.586245 -2.45843,5.46875 -4.85752,11.84795 -5.3313,14.17598 -1.69093,8.30882 0.33864,15.30013 6.77797,23.34829 4.64053,5.79995 5.65353,8.426 4.85874,12.59547 -0.72563,3.80669 -2.25492,6.31134 -7.09166,11.6147 -4.83811,5.30485 -5.343,6.65522 -6.31806,16.89809 -0.57206,6.00941 -2.3355,8.73094 -7.35715,11.35428 -5.55445,2.90168 -12.48945,2.83187 -19.38621,-0.19514 -2.73528,-1.20052 -5.82508,-2.23923 -6.86621,-2.30823 -1.86,-0.12329 -1.89666,-0.0406 -2.10473,4.74559 -0.17844,4.10447 0.12562,5.68152 1.93205,10.02075 2.4378,5.85585 4.31664,15.47851 4.31664,22.10805 0,5.33138 -0.70114,5.96888 -6.56472,5.96888 -5.38311,0 -6.37947,-0.95881 -6.97496,-6.7122 -0.55486,-5.36073 -0.86163,-5.85243 -3.86089,-6.18836 -2.12752,-0.23829 -2.13142,-0.23188 -2.63346,4.3204 -0.72178,6.54485 -0.6414,6.44948 -5.43588,6.44948 -4.74054,0 -4.69525,0.0496 -5.44665,-5.9644 -0.48162,-3.85483 -0.59956,-4.04565 -2.37325,-3.84003 -1.72555,0.20002 -1.89409,0.52711 -2.23268,4.33295 -0.22566,2.53645 -0.7709,4.37244 -1.42045,4.78315 -0.57982,0.36662 -2.86911,0.67147 -5.0873,0.67745 -5.17735,0.014 -6.26162,-1.00519 -6.27609,-5.89923 -0.0143,-4.84077 -0.62131,-5.64723 -4.25049,-5.64723 -3.62918,0 -4.23617,0.80646 -4.25049,5.64723 -0.0145,4.89404 -1.09874,5.91319 -6.27609,5.89923 -2.21819,-0.006 -4.50748,-0.31083 -5.0873,-0.67745 -0.64955,-0.41071 -1.19479,-2.2467 -1.42045,-4.78315 -0.33859,-3.80584 -0.50713,-4.13293 -2.23268,-4.33295 -1.77369,-0.20562 -1.89163,-0.0148 -2.37325,3.84003 -0.7514,6.014 -0.70611,5.9644 -5.44665,5.9644 -4.79448,0 -4.7141,0.0954 -5.43588,-6.44948 -0.50203,-4.55228 -0.50594,-4.55869 -2.63346,-4.3204 -2.999264,0.33593 -3.306034,0.82763 -3.860894,6.18836 -0.35643,3.44371 -0.86225,5.03368 -1.82541,5.73796 -1.55456,1.13672 -8.634897,1.27677 -10.471367,0.20712 z m 41.478431,-41.27471 c 1.22723,-1.19668 7.61386,-3.41272 9.83549,-3.41272 2.73611,0 8.65358,2.33027 10.72737,4.22439 2.20296,2.01208 4.1874,2.19789 4.1874,0.39208 0,-0.50237 -0.51154,-3.4245 -1.13676,-6.49362 -1.25503,-6.16081 -3.75667,-11.13512 -8.05677,-16.02029 -2.48555,-2.82373 -3.18288,-3.21567 -5.72124,-3.21567 -2.53836,0 -3.23569,0.39194 -5.72124,3.21567 -4.51169,5.12555 -6.82336,9.85296 -8.17685,16.72185 -1.04042,5.2801 -1.0824,6.37785 -0.26328,6.8841 0.97189,0.60066 1.8136,0.15396 4.32588,-2.29579 z M 89.616149,194.62629 c 17.898711,-4.89794 30.841321,-10.04943 33.600281,-13.37379 1.0228,-1.23238 0.13387,-1.90447 -10.35181,-7.82669 -8.6612,-4.89176 -19.342321,-9.67412 -26.382601,-11.81254 -4.96208,-1.50719 -5.25174,-1.51944 -8.48727,-0.35913 -1.84243,0.66072 -4.94788,1.764 -6.901,2.45175 -4.16797,1.46764 -5.3013,3.19783 -5.31624,8.11594 -0.0207,6.84055 3.93334,18.94433 7.43918,22.77181 2.9973,3.27229 4.54943,3.27539 16.39946,0.0327 z m 112.167161,-0.0327 c 3.50584,-3.82747 7.45995,-15.93125 7.43918,-22.77181 -0.0149,-4.9181 -1.14827,-6.64829 -5.31624,-8.11593 -1.95312,-0.68775 -5.05857,-1.79103 -6.901,-2.45176 -3.23553,-1.1603 -3.52518,-1.14805 -8.48726,0.35913 -7.04029,2.13842 -17.7214,6.92079 -26.3826,11.81255 -10.4857,5.92221 -11.37462,6.5943 -10.35182,7.82669 2.7211,3.27873 15.40506,8.35718 33.30166,13.33343 11.78342,3.27645 13.70322,3.27733 16.69808,0.008 z"
     id="path3049"
     inkscape:connector-curvature="0" />
</svg>
